<?xml version="1.0" encoding="UTF-8" standalone="no"?>
<svg
   xmlns:dc="http://purl.org/dc/elements/1.1/"
   xmlns:cc="http://creativecommons.org/ns#"
   xmlns:rdf="http://www.w3.org/1999/02/22-rdf-syntax-ns#"
   xmlns:svg="http://www.w3.org/2000/svg"
   xmlns="http://www.w3.org/2000/svg"
   xmlns:sodipodi="http://sodipodi.sourceforge.net/DTD/sodipodi-0.dtd"
   xmlns:inkscape="http://www.inkscape.org/namespaces/inkscape"
   width="50"
   height="50"
   viewBox="0 0 50 50"
   version="1.1"
   id="svg4"
   sodipodi:docname="twitterIcon.svg"
   inkscape:export-filename="/home/hoistyr/Projects/the-odin-project/restaurantPage/src/images/twitterIcon.png"
   inkscape:export-xdpi="200"
   inkscape:export-ydpi="200"
   inkscape:version="1.0.2 (1.0.2+r75+1)">
  <metadata
     id="metadata10">
    <rdf:RDF>
      <cc:Work
         rdf:about="">
        <dc:format>image/svg+xml</dc:format>
        <dc:type
           rdf:resource="http://purl.org/dc/dcmitype/StillImage" />
        <dc:title></dc:title>
      </cc:Work>
    </rdf:RDF>
  </metadata>
  <defs
     id="defs8" />
  <sodipodi:namedview
     pagecolor="#ffffff"
     bordercolor="#666666"
     borderopacity="1"
     objecttolerance="10"
     gridtolerance="10"
     guidetolerance="10"
     inkscape:pageopacity="0"
     inkscape:pageshadow="2"
     inkscape:window-width="1920"
     inkscape:window-height="926"
     id="namedview6"
     showgrid="false"
     inkscape:zoom="5.6494886"
     inkscape:cx="-10.350648"
     inkscape:cy="13.490577"
     inkscape:window-x="0"
     inkscape:window-y="25"
     inkscape:window-maximized="1"
     inkscape:current-layer="svg4" />
  <path
     d="m 50,9.4937502 c -1.839583,0.8166668 -3.816667,1.3666668 -5.891667,1.6145828 2.11875,-1.2687495 3.745834,-3.2791662 4.510417,-5.6749995 -1.98125,1.175 -4.177083,2.0291667 -6.514583,2.4895833 -1.86875,-1.99375 -4.5375,-3.2395833 -7.4875,-3.2395833 -6.622917,0 -11.489584,6.1791665 -9.99375,12.5937495 C 16.1,16.85 8.5416667,12.766666 3.48125,6.5604168 0.79375,11.170833 2.0875,17.202083 6.6541667,20.25625 4.975,20.202083 3.3916667,19.741666 2.0104167,18.972916 c -0.1125,4.752084 3.29375,9.197917 8.2270833,10.1875 -1.44375,0.391668 -3.025,0.483334 -4.6333333,0.175 1.3041666,4.075 5.0916663,7.039584 9.5833333,7.122918 C 10.875,39.839583 5.4416667,41.35 0,40.708334 c 4.5395833,2.910417 9.9333333,4.608333 15.725,4.608333 19.045833,0 29.80625,-16.085416 29.15625,-30.5125 C 46.885417,13.35625 48.625,11.55 50,9.4937502 Z"
     id="path2"
     style="fill:#a0aca4;fill-opacity:1;stroke-width:2.08333" />
</svg>
