<?xml version="1.0" encoding="UTF-8" standalone="no"?>
<svg
   xmlns:dc="http://purl.org/dc/elements/1.1/"
   xmlns:cc="http://creativecommons.org/ns#"
   xmlns:rdf="http://www.w3.org/1999/02/22-rdf-syntax-ns#"
   xmlns:svg="http://www.w3.org/2000/svg"
   xmlns="http://www.w3.org/2000/svg"
   xmlns:sodipodi="http://sodipodi.sourceforge.net/DTD/sodipodi-0.dtd"
   xmlns:inkscape="http://www.inkscape.org/namespaces/inkscape"
   width="50"
   height="50"
   viewBox="0 0 50 50"
   version="1.1"
   id="svg4"
   sodipodi:docname="instagramIcon.svg"
   inkscape:version="1.0.2 (1.0.2+r75+1)">
  <metadata
     id="metadata10">
    <rdf:RDF>
      <cc:Work
         rdf:about="">
        <dc:format>image/svg+xml</dc:format>
        <dc:type
           rdf:resource="http://purl.org/dc/dcmitype/StillImage" />
        <dc:title></dc:title>
      </cc:Work>
    </rdf:RDF>
  </metadata>
  <defs
     id="defs8" />
  <sodipodi:namedview
     pagecolor="#ffffff"
     bordercolor="#666666"
     borderopacity="1"
     objecttolerance="10"
     gridtolerance="10"
     guidetolerance="10"
     inkscape:pageopacity="0"
     inkscape:pageshadow="2"
     inkscape:window-width="1920"
     inkscape:window-height="926"
     id="namedview6"
     showgrid="false"
     inkscape:zoom="5.6494886"
     inkscape:cx="-0.033651967"
     inkscape:cy="32.731883"
     inkscape:window-x="0"
     inkscape:window-y="25"
     inkscape:window-maximized="1"
     inkscape:current-layer="svg4" />
  <path
     d="m 25,4.50625 c 6.675,0 7.466667,0.025 10.104167,0.1458333 C 41.879167,4.9604167 45.04375,8.175 45.352083,14.9 c 0.120834,2.635417 0.14375,3.427083 0.14375,10.102083 0,6.677084 -0.025,7.466667 -0.14375,10.102084 -0.310416,6.71875 -3.466666,9.939583 -10.247916,10.247916 -2.6375,0.120834 -3.425,0.145834 -10.104167,0.145834 -6.675,0 -7.466667,-0.025 -10.102083,-0.145834 C 8.10625,45.041667 4.9583333,41.8125 4.65,35.102083 4.5291667,32.466667 4.5041667,31.677083 4.5041667,25 4.5041667,18.325 4.53125,17.535417 4.65,14.897917 4.9604167,8.175 8.1166667,4.9583333 14.897917,4.65 17.535417,4.53125 18.325,4.50625 25,4.50625 Z M 25,0 C 18.210417,0 17.360417,0.02916667 14.69375,0.15 5.6145833,0.56666667 0.56875,5.6041667 0.15208333,14.691667 0.02916667,17.360417 0,18.210417 0,25 0,31.789583 0.02916667,32.641667 0.15,35.308333 0.56666667,44.3875 5.6041667,49.433333 14.691667,49.85 17.360417,49.970833 18.210417,50 25,50 31.789583,50 32.641667,49.970833 35.308333,49.85 44.379167,49.433333 49.4375,44.395833 49.847917,35.308333 49.970833,32.641667 50,31.789583 50,25 50,18.210417 49.970833,17.360417 49.85,14.69375 49.441667,5.6229167 44.397917,0.56875 35.310417,0.15208333 32.641667,0.02916667 31.789583,0 25,0 Z m 0,12.1625 c -7.089583,0 -12.8375,5.747917 -12.8375,12.8375 0,7.089583 5.747917,12.839583 12.8375,12.839583 7.089583,0 12.8375,-5.747916 12.8375,-12.839583 0,-7.089583 -5.747917,-12.8375 -12.8375,-12.8375 z m 0,21.170833 c -4.602083,0 -8.333333,-3.729166 -8.333333,-8.333333 0,-4.602083 3.73125,-8.333333 8.333333,-8.333333 4.602083,0 8.333333,3.73125 8.333333,8.333333 0,4.604167 -3.73125,8.333333 -8.333333,8.333333 z M 38.345833,8.65625 c -1.658333,0 -3.002083,1.34375 -3.002083,3 0,1.65625 1.34375,3 3.002083,3 1.65625,0 2.997917,-1.34375 2.997917,-3 0,-1.65625 -1.341667,-3 -2.997917,-3 z"
     id="path2"
     style="fill:#a0aca4;fill-opacity:1;stroke-width:2.08333" />
</svg>
